<svg width="70" height="41" viewBox="0 0 70 41" fill="none" xmlns="http://www.w3.org/2000/svg">
<rect x="0.5" y="1.5" width="69" height="39" rx="19.5" stroke="url(#paint0_linear)"/>
<rect x="0.5" y="0.5" width="69" height="39" rx="19.5" stroke="url(#paint1_linear)"/>
<path d="M29.9187 8.14L28.8747 8.38V15.268L29.9187 15.484V16H26.9307V15.484L27.9627 15.268V9.004L25.3947 13.816L24.7347 13.864L22.2387 8.992V15.268L23.2827 15.484V16H20.3907V15.484L21.4227 15.268V8.38L20.3907 8.2V7.684L22.6347 7.624L25.1667 12.748L27.7827 7.684L29.9187 7.624V8.14ZM30.9342 16V15.484L31.8702 15.268V10.408L30.9342 10.204V9.7L33.7062 9.628V10.132L32.7942 10.372V14.116L36.1302 10.636V10.384L35.2062 10.204V9.7L37.9782 9.628V10.132L37.0422 10.372V15.268L37.9782 15.484V16H35.2062V15.484L36.1182 15.28V11.452L32.7942 15.004V15.304L33.7062 15.484V16H30.9342ZM38.8678 16V15.484L39.8038 15.28V10.384L38.8678 10.204V9.7L41.6518 9.628V10.132L40.7638 10.348V12.34H42.0718L43.2718 10.336L42.4198 10.216V9.7L45.0598 9.616V10.132L44.1958 10.3L42.8278 12.568L44.4838 15.304L45.3958 15.484V16H43.8718L42.1078 13.012H40.7638V15.268L41.7958 15.484V16H38.8678ZM48.3089 16.108C47.7969 16.108 47.3329 15.984 46.9169 15.736C46.5089 15.48 46.1849 15.112 45.9449 14.632C45.7129 14.152 45.5969 13.576 45.5969 12.904C45.5969 12.128 45.7369 11.496 46.0169 11.008C46.2969 10.512 46.6649 10.148 47.1209 9.916C47.5849 9.676 48.0809 9.556 48.6089 9.556C48.9289 9.556 49.2689 9.6 49.6289 9.688C49.9969 9.776 50.3169 9.896 50.5889 10.048L50.5409 11.548H49.8929L49.7369 10.48C49.5529 10.408 49.3569 10.356 49.1489 10.324C48.9409 10.284 48.7569 10.264 48.5969 10.264C47.9729 10.264 47.4809 10.496 47.1209 10.96C46.7689 11.424 46.5929 12.052 46.5929 12.844C46.5929 13.66 46.7729 14.284 47.1329 14.716C47.5009 15.148 47.9649 15.364 48.5249 15.364C48.8049 15.364 49.1049 15.308 49.4249 15.196C49.7529 15.076 50.0889 14.892 50.4329 14.644L50.7689 15.172C50.3529 15.492 49.9369 15.728 49.5209 15.88C49.1049 16.032 48.7009 16.108 48.3089 16.108ZM8.91808 29.016L9.30208 28.38C10.1181 28.996 10.9181 29.304 11.7021 29.304C12.1821 29.304 12.6221 29.184 13.0221 28.944C13.4221 28.696 13.7461 28.328 13.9941 27.84C14.2421 27.352 14.3821 26.744 14.4141 26.016H10.5141V25.332H14.4141C14.3661 24.372 14.1061 23.628 13.6341 23.1C13.1621 22.564 12.5141 22.296 11.6901 22.296C11.1701 22.296 10.5861 22.408 9.93808 22.632L9.74608 23.976H9.14608L9.05008 22.152C10.0821 21.728 11.0181 21.516 11.8581 21.516C12.5861 21.516 13.2181 21.676 13.7541 21.996C14.2981 22.316 14.7181 22.784 15.0141 23.4C15.3101 24.008 15.4581 24.752 15.4581 25.632C15.4581 26.584 15.2941 27.396 14.9661 28.068C14.6381 28.732 14.1941 29.24 13.6341 29.592C13.0821 29.936 12.4701 30.108 11.7981 30.108C11.3261 30.108 10.8461 30.02 10.3581 29.844C9.87008 29.66 9.39008 29.384 8.91808 29.016ZM16.4499 30V29.484L17.3859 29.268V24.408L16.4499 24.204V23.7L19.2579 23.628V24.132L18.3459 24.372V26.328H21.5979V24.384L20.6859 24.204V23.7L23.5059 23.628V24.132L22.5579 24.372V29.268L23.5059 29.484V30H20.6859V29.484L21.5979 29.28V27.048H18.3459V29.28L19.2579 29.484V30H16.4499ZM27.2515 30.108C26.7155 30.108 26.2395 29.988 25.8235 29.748C25.4155 29.5 25.0955 29.14 24.8635 28.668C24.6315 28.196 24.5155 27.616 24.5155 26.928C24.5155 26.24 24.6355 25.644 24.8755 25.14C25.1155 24.636 25.4515 24.248 25.8835 23.976C26.3235 23.696 26.8435 23.556 27.4435 23.556C28.0035 23.556 28.4635 23.676 28.8235 23.916C29.1915 24.148 29.4635 24.472 29.6395 24.888C29.8235 25.304 29.9155 25.78 29.9155 26.316C29.9155 26.404 29.9115 26.496 29.9035 26.592C29.8955 26.68 29.8875 26.784 29.8795 26.904H25.5115C25.5275 27.656 25.7035 28.256 26.0395 28.704C26.3755 29.144 26.8555 29.364 27.4795 29.364C27.7755 29.364 28.0995 29.308 28.4515 29.196C28.8035 29.076 29.1675 28.896 29.5435 28.656L29.8915 29.196C29.4435 29.508 28.9955 29.74 28.5475 29.892C28.0995 30.036 27.6675 30.108 27.2515 30.108ZM27.3715 24.288C26.8435 24.288 26.4235 24.468 26.1115 24.828C25.8075 25.18 25.6195 25.644 25.5475 26.22H28.9195C28.9275 25.876 28.8795 25.56 28.7755 25.272C28.6715 24.976 28.5035 24.74 28.2715 24.564C28.0475 24.38 27.7475 24.288 27.3715 24.288ZM30.8377 32.76V32.244L31.7737 32.028V24.42L30.8377 24.216V23.7L32.5177 23.616L32.6257 24.504C33.3297 23.872 34.0297 23.556 34.7257 23.556C35.1737 23.556 35.5737 23.68 35.9257 23.928C36.2857 24.168 36.5697 24.524 36.7777 24.996C36.9857 25.468 37.0897 26.044 37.0897 26.724C37.0897 27.836 36.8097 28.68 36.2497 29.256C35.6977 29.832 34.9617 30.12 34.0417 30.12C33.8337 30.12 33.6217 30.104 33.4057 30.072C33.1897 30.04 32.9657 29.996 32.7337 29.94V32.028L33.8377 32.244V32.76H30.8377ZM33.9337 29.4C34.6377 29.4 35.1737 29.176 35.5417 28.728C35.9097 28.272 36.0937 27.636 36.0937 26.82C36.0937 26.028 35.9297 25.408 35.6017 24.96C35.2817 24.512 34.8777 24.288 34.3897 24.288C34.1337 24.288 33.8617 24.352 33.5737 24.48C33.2937 24.608 33.0137 24.804 32.7337 25.068V29.208C33.1657 29.336 33.5657 29.4 33.9337 29.4ZM37.6535 31.896L37.6175 29.424L38.2655 29.328C38.4975 29.136 38.7015 28.912 38.8775 28.656C39.0535 28.4 39.1975 28.088 39.3095 27.72C39.4295 27.344 39.5215 26.884 39.5855 26.34C39.6495 25.796 39.6855 25.144 39.6935 24.384L38.6495 24.18V23.664H44.1815V24.18L43.2335 24.396V29.304L44.4935 29.448L44.4815 31.896H43.8695L43.6175 30H38.4935L38.2535 31.896H37.6535ZM39.1655 29.268H42.2735V24.396H40.4015C40.3855 25.3 40.3335 26.068 40.2455 26.7C40.1655 27.332 40.0375 27.856 39.8615 28.272C39.6855 28.68 39.4535 29.012 39.1655 29.268ZM44.8837 30V29.484L45.8077 29.304L47.4397 26.676L46.1077 24.324L45.1837 24.204V23.7L47.8477 23.628V24.132L46.9957 24.324L48.1237 26.424H49.3237V24.384L48.4237 24.204V23.7L51.0997 23.628V24.132L50.1997 24.348V26.424H51.3877L52.5877 24.336L51.7357 24.216V23.7L54.3757 23.616V24.132L53.4637 24.312L52.0957 26.652L53.8237 29.304L54.7477 29.484V30H53.1997L51.3757 27.096H50.1997V29.268L51.2317 29.484V30H48.3997V29.484L49.3237 29.28V27.096H48.1597L46.4197 30H44.8837ZM55.1803 30V29.484L56.1163 29.268V24.408L55.1803 24.204V23.7L57.9523 23.628V24.132L57.0403 24.372V28.116L60.3763 24.636V24.384L59.4523 24.204V23.7L62.2243 23.628V24.132L61.2883 24.372V29.268L62.2243 29.484V30H59.4523V29.484L60.3643 29.28V25.452L57.0403 29.004V29.304L57.9523 29.484V30H55.1803Z" fill="url(#paint2_linear)"/>
<path d="M5 20H65" stroke="url(#paint3_radial)" stroke-width="2" stroke-linecap="round"/>
<defs>
<linearGradient id="paint0_linear" x1="35" y1="1" x2="35" y2="41" gradientUnits="userSpaceOnUse">
<stop offset="0.465009" stop-color="white" stop-opacity="0"/>
<stop offset="0.765625" stop-color="#0906AB"/>
</linearGradient>
<linearGradient id="paint1_linear" x1="35" y1="0" x2="35" y2="40" gradientUnits="userSpaceOnUse">
<stop offset="0.131552" stop-color="#AF0ACA"/>
<stop offset="0.625" stop-color="white" stop-opacity="0"/>
</linearGradient>
<linearGradient id="paint2_linear" x1="32.9537" y1="8.5" x2="36.3005" y2="39.4133" gradientUnits="userSpaceOnUse">
<stop offset="0.246922" stop-color="#0013BD"/>
<stop offset="0.849998" stop-color="#87009D" stop-opacity="0.83"/>
</linearGradient>
<radialGradient id="paint3_radial" cx="0" cy="0" r="1" gradientUnits="userSpaceOnUse" gradientTransform="translate(32.75 15) rotate(73.3008) scale(7.83023 448.263)">
<stop offset="0.250833" stop-color="#0013BD"/>
<stop offset="1" stop-color="#AF0ACA" stop-opacity="0.13"/>
</radialGradient>
</defs>
</svg>
